<?xml version="1.0" encoding="utf-8"?>
<!-- Generator: Adobe Illustrator 25.0.0, SVG Export Plug-In . SVG Version: 6.00 Build 0)  -->
<svg version="1.1" id="Layer_1" xmlns="http://www.w3.org/2000/svg" xmlns:xlink="http://www.w3.org/1999/xlink" x="0px" y="0px"
	 viewBox="0 0 1920 1000" style="enable-background:new 0 0 1920 1000;" xml:space="preserve">
<style type="text/css">
	.st0{font-family:'MyriadPro-Regular';}
	.st1{font-size:12px;}
	.st2{letter-spacing:33;}
</style>
<g>
	<path d="M687.8,458.3c-8.6,11.1-15.9,21.4-24.1,30.9c-4,4.7-9.3,8.6-14.5,12c-3.3,2.2-7.6,3.6-11.6,4.2
		c-9.1,1.3-15.3-2.9-17.2-11.9c-1.1-5.3-1.1-10.8-1.6-16.7c-3.1,4.8-5.7,9.6-9,13.8c-3.9,5-7.9,9.9-12.6,14.1
		c-3.5,3.1-8,5.6-12.4,7.2c-13.5,4.9-25.1-2.8-24.2-17.1c0.8-12.3,4.1-24.5,6.4-36.7c0.8-4,1.9-8,3.2-13.4c-3.1,1.4-4.9,2-6.4,3
		c-10.4,7.8-20.8,15.6-30.9,23.7c-2.1,1.7-3.8,4.6-4.6,7.3c-19.9,67.6-44.9,132.9-84.4,191.8c-16.1,24-34.7,46-58.4,63.1
		c-9.8,7.1-20.5,12.2-32.7,14c-23.9,3.6-40.9-11.1-41.5-35.4c-0.6-23.5,7.7-44.3,18.8-64.3c19.3-34.9,45.2-64.5,74.4-91.4
		c30.3-27.9,63.2-52.7,97.1-76c3.8-2.6,6-5.7,7.3-10.2c12.4-44.1,20.3-88.8,19.4-134.8c-0.3-13.7-1.5-27.3-7-40
		c-8.5-19.5-23.5-26.8-44.1-21.1c-19.6,5.4-35.6,17.1-50.3,30.6c-26.9,24.7-46.1,54-54.2,90.1c-3.1,14-3.7,28-0.3,42.1
		c6.5,27.4,28.3,45.1,57.1,46.4c4.5,0.2,9,0,13.5,0.2c1.1,0.1,2.2,1.3,3.2,2c-0.9,1-1.7,2.6-2.7,2.8c-44,9.3-82.6-10.4-89.1-55.3
		c-4.2-29.3,3.3-56.6,17.1-82.1c19.9-36.8,48.1-65.7,85.5-85c13-6.7,26.9-10.7,41.8-9c15,1.7,25.9,9.9,33.6,22.4
		c8.4,13.5,11.4,28.7,12.6,44.2c3.6,43.8-1,87.1-10.7,129.8c-0.2,0.8-0.2,1.6-0.4,3.5c2-1.3,3.3-2.1,4.5-3
		c12.3-9.1,24.5-18.4,36.9-27.4c3-2.2,6.6-4.1,10.1-4.9c5-1.1,7.9,1.5,7.4,6.6c-0.6,5.7-2,11.4-3.4,17c-2.9,11.8-6.1,23.5-8.9,35.2
		c-0.7,2.7-0.9,5.7-0.4,8.4c0.4,2.2,1.6,5.1,3.3,6c1.4,0.8,4.4-0.4,6.3-1.6c2.2-1.4,4.2-3.4,5.8-5.4c13.3-16.6,23.9-34.8,31.9-54.5
		c0.9-2.1,1.3-4.5,2-6.7c0.8-2.4,1.4-4.8,2.5-7c2.5-4.9,7.1-7,11.5-5.5c3.8,1.3,5.5,5.2,4.4,10.9c-2,9.8-4.3,19.5-6.2,29.3
		c-1.2,6.2-1.9,12.5-2.4,18.8c-0.2,2.6,0.2,5.4,1,7.9c1.1,3.7,4,5.3,7.4,3c3.7-2.4,7.4-5.3,10.3-8.5c16.8-18.5,29-39.6,37.2-63.2
		c1-3,2.8-6.5,5.2-8.1c2.4-1.6,6.6-2.1,9.1-1c2.2,1,4.5,4.9,4.4,7.4c-0.6,10.8-2.1,21.5-3.4,32.2c-0.9,7.3-2,14.6-3,22
		c0.4,0.2,0.8,0.3,1.2,0.5c1.3-1.6,2.7-3.1,3.9-4.8c8.6-11.6,17.2-23.3,25.9-34.9c4.5-6.1,7.8-12.6,9-20.3
		c1.1-7.1,5.1-10.5,10.7-10.5c4.5,0,7.2,2.3,7,6.6c-0.3,5.4-1.3,10.8-2.4,16.2c-2.3,11.4-5.1,22.7-7.1,34.1
		c-0.7,4.1-0.1,8.7,0.8,12.8c0.8,3.8,4,5,7.3,2.8c3.3-2.2,6.4-4.9,9-7.8c15.6-17.4,24.5-38.2,30.6-60.4c0.9-3.1,2.4-6.2,4.2-8.9
		c2.4-3.6,6.3-4.4,10.2-2.9c3.9,1.4,4.9,5,4.3,8.6c-1.5,8.1-3.9,16.1-5.3,24.3c-1.6,9.7-2.8,19.4-3.5,29.2c-0.2,2.5,1.5,6.7,3.4,7.4
		c2.3,0.9,6.1-0.5,8.3-2.1c3.3-2.4,6.2-5.6,8.5-9c8.5-12.9,17-25.9,24.9-39.1c2.2-3.7,2.6-8.5,4-12.7c1.1-3.2,2-6.7,3.9-9.5
		c2.1-3,6-4.6,9.3-2.4c2.2,1.5,4.4,4.9,4.4,7.4c-0.2,8.1-1.4,16.2-2.3,24.3c-0.4,3.9-1.1,7.9-0.6,12.4c1-1.3,2.1-2.6,3.1-4
		c8.9-12.1,17.3-24.5,26.8-36.1c4.5-5.5,10.9-9.6,16.8-13.8c2.4-1.7,5.8-2.6,8.8-3.1c8.4-1.3,13.2,1.9,13.5,10.4
		c0.3,10.2-0.8,20.5-1.4,30.8c-0.5,7.1-1.9,14.2-1.6,21.3c0.3,7.6,5.1,10.3,11.6,6.3c8.1-5,16.3-10.6,22.6-17.6
		c8.8-9.7,15.8-20.9,23.6-31.5c2.2-3.1,4.7-6.7,8.7-4.3c3.7,2.3,2.2,6.6,0.4,9.5c-12.8,20.4-26,40.4-45.6,55.1
		c-7.5,5.6-15.7,9.3-25.4,9c-6.8-0.2-11.9-3.2-13.3-9.8c-1.5-7.1-2.1-14.5-1.8-21.7c0.3-8.3,2.4-16.5,2.9-24.7
		c0.2-3.6-1.6-7.4-2.5-11.1c-3.2,1.4-7.2,1.9-9.5,4.2c-5.7,5.8-11.5,11.8-15.7,18.6c-9.1,14.5-17.3,29.5-25.8,44.3
		c-1.7,2.9-3.1,6-5.1,8.6c-2.4,3.2-5.9,4.3-9.8,3c-3.7-1.3-5.2-4.3-4.9-7.9c0.5-7.4,1.5-14.9,2.2-22.3c0.1-0.8,0.2-1.5-0.7-2.8
		c-1.3,1.9-2.7,3.9-4,5.8c-7,10.6-14.2,21.1-24.6,28.7c-3.8,2.8-8.2,5.1-12.7,6.5c-7.6,2.4-13.7-0.8-16.1-8.4
		c-1.6-5.2-2-10.7-3-16.4c-2.4,3.5-4.6,7.4-7.5,10.5c-6.3,6.8-12.8,13.5-19.7,19.6c-4.3,3.8-10,5-15.9,4.6
		c-7.3-0.6-12.3-4.1-12.9-11.4c-0.6-8.2,0.1-16.6,0.4-24.8c0.1-2.9,0.6-5.8,1-9.8c-12.2,15.6-24,29.7-34.6,44.7
		c-3.2,4.6-3.8,11.2-5.1,17c-7.8,35.4-16.8,70.5-31,104c-7.4,17.5-16,34.4-28.8,48.7c-6.9,7.6-14.6,14.1-24.4,17.8
		c-21,8-38.3-3.5-39.7-26c-0.9-14.4,3.2-27.2,9.8-39.6c13.7-25.6,31.9-47.9,51.5-69.1c12.6-13.7,25.9-26.8,39.2-40
		c3.9-3.9,6.4-8.1,7-13.8C684.6,476.6,686.2,467.9,687.8,458.3z M501.9,495.1c-0.5-0.3-0.9-0.5-1.4-0.8c-6.7,4.9-13.5,9.6-20.1,14.6
		c-39.4,29.3-76.8,60.9-107.1,99.8c-17.2,22-32.1,45.3-40.7,72.2c-3.3,10.4-5.1,21-2.7,31.9c2.8,13.2,12.5,19.4,25.1,15
		c7.4-2.6,14.7-6.4,21.1-11c19.4-13.8,34.5-31.8,47.7-51.3c30-44.4,52-92.6,69.3-143.2C496.2,513.3,499,504.2,501.9,495.1z
		 M677.5,517.7c-0.4-0.2-0.9-0.4-1.3-0.5c-0.7,0.6-1.5,1.2-2.2,1.8c-11.2,11.9-22.6,23.6-33.4,35.8c-15.7,17.7-30.3,36.3-40,58.2
		c-4.1,9.3-7.2,19-6.6,29.4c0.8,13,9.6,18.1,20.9,11.9c2.8-1.5,5.7-3.2,7.6-5.5c5.9-7,12.2-13.8,16.8-21.6
		c15.4-26.2,24.3-54.9,31.8-84.1C673.4,534.7,675.4,526.1,677.5,517.7z"/>
	<path d="M586.1,402.4c-6.4,0-9.8-5.2-7.5-12c2.4-7.1,7.6-11.2,14.8-12.6c5-1,8.7,2.3,9,7.5C602.8,393.5,594.3,402.5,586.1,402.4z"
		/>
</g>
<text transform="matrix(1 0 0 1 1055.792 200.0396)"><tspan x="0" y="0" class="st0 st1">&lt;svg version=&quot;1.1&quot; id=&quot;Layer_1&quot; xmlns=&quot;http://www.w3.org/2000/svg&quot; xmlns:xlink=&quot;http://www.w3.org/1999/xlink&quot; x=&quot;0px&quot; y=&quot;0px&quot;</tspan><tspan x="0" y="14.4" class="st0 st1 st2">	</tspan><tspan x="36" y="14.4" class="st0 st1"> viewBox=&quot;0 0 1920 1000&quot; style=&quot;enable-background:new 0 0 1920 1000;&quot; xml:space=&quot;preserve&quot;&gt;</tspan><tspan x="0" y="28.8" class="st0 st1">&lt;g&gt;</tspan><tspan x="0" y="43.2" class="st0 st1 st2">	</tspan><tspan x="36" y="43.2" class="st0 st1">&lt;path d=&quot;M952.8,473.3c-8.6,11.1-15.9,21.4-24.1,30.9c-4,4.7-9.3,8.6-14.5,12c-3.3,2.2-7.6,3.6-11.6,4.2</tspan><tspan x="0" y="57.6" class="st0 st1 st2">		</tspan><tspan x="72" y="57.6" class="st0 st1">c-9.1,1.3-15.3-2.9-17.2-11.9c-1.1-5.3-1.1-10.8-1.6-16.7c-3.1,4.8-5.7,9.6-9,13.8c-3.9,5-7.9,9.9-12.6,14.1</tspan><tspan x="0" y="72" class="st0 st1 st2">		</tspan><tspan x="72" y="72" class="st0 st1">c-3.5,3.1-8,5.6-12.4,7.2c-13.5,4.9-25.1-2.8-24.2-17.1c0.8-12.3,4.1-24.5,6.4-36.7c0.8-4,1.9-8,3.2-13.4c-3.1,1.4-4.9,2-6.4,3</tspan><tspan x="0" y="86.4" class="st0 st1 st2">		</tspan><tspan x="72" y="86.4" class="st0 st1">c-10.4,7.8-20.8,15.6-30.9,23.7c-2.1,1.7-3.8,4.6-4.6,7.3c-19.9,67.6-44.9,132.9-84.4,191.8c-16.1,24-34.7,46-58.4,63.1</tspan><tspan x="0" y="100.8" class="st0 st1 st2">		</tspan><tspan x="72" y="100.8" class="st0 st1">c-9.8,7.1-20.5,12.2-32.7,14c-23.9,3.6-40.9-11.1-41.5-35.4c-0.6-23.5,7.7-44.3,18.8-64.3c19.3-34.9,45.2-64.5,74.4-91.4</tspan><tspan x="0" y="115.2" class="st0 st1 st2">		</tspan><tspan x="72" y="115.2" class="st0 st1">c30.3-27.9,63.2-52.7,97.1-76c3.8-2.6,6-5.7,7.3-10.2c12.4-44.1,20.3-88.8,19.4-134.8c-0.3-13.7-1.5-27.3-7-40</tspan><tspan x="0" y="129.6" class="st0 st1 st2">		</tspan><tspan x="72" y="129.6" class="st0 st1">c-8.5-19.5-23.5-26.8-44.1-21.1c-19.6,5.4-35.6,17.1-50.3,30.6c-26.9,24.7-46.1,54-54.2,90.1c-3.1,14-3.7,28-0.3,42.1</tspan><tspan x="0" y="144" class="st0 st1 st2">		</tspan><tspan x="72" y="144" class="st0 st1">c6.5,27.4,28.3,45.1,57.1,46.4c4.5,0.2,9,0,13.5,0.2c1.1,0.1,2.2,1.3,3.2,2c-0.9,1-1.7,2.6-2.7,2.8c-44,9.3-82.6-10.4-89.1-55.3</tspan><tspan x="0" y="158.4" class="st0 st1 st2">		</tspan><tspan x="72" y="158.4" class="st0 st1">c-4.2-29.3,3.3-56.6,17.1-82.1c19.9-36.8,48.1-65.7,85.5-85c13-6.7,26.9-10.7,41.8-9c15,1.7,25.9,9.9,33.6,22.4</tspan><tspan x="0" y="172.8" class="st0 st1 st2">		</tspan><tspan x="72" y="172.8" class="st0 st1">c8.4,13.5,11.4,28.7,12.6,44.2c3.6,43.8-1,87.1-10.7,129.8c-0.2,0.8-0.2,1.6-0.4,3.5c2-1.3,3.3-2.1,4.5-3</tspan><tspan x="0" y="187.2" class="st0 st1 st2">		</tspan><tspan x="72" y="187.2" class="st0 st1">c12.3-9.1,24.5-18.4,36.9-27.4c3-2.2,6.6-4.1,10.1-4.9c5-1.1,7.9,1.5,7.4,6.6c-0.6,5.7-2,11.4-3.4,17c-2.9,11.8-6.1,23.5-8.9,35.2</tspan><tspan x="0" y="201.6" class="st0 st1 st2">		</tspan><tspan x="72" y="201.6" class="st0 st1">c-0.7,2.7-0.9,5.7-0.4,8.4c0.4,2.2,1.6,5.1,3.3,6c1.4,0.8,4.4-0.4,6.3-1.6c2.2-1.4,4.2-3.4,5.8-5.4c13.3-16.6,23.9-34.8,31.9-54.5</tspan><tspan x="0" y="216" class="st0 st1 st2">		</tspan><tspan x="72" y="216" class="st0 st1">c0.9-2.1,1.3-4.5,2-6.7c0.8-2.4,1.4-4.8,2.5-7c2.5-4.9,7.1-7,11.5-5.5c3.8,1.3,5.5,5.2,4.4,10.9c-2,9.8-4.3,19.5-6.2,29.3</tspan><tspan x="0" y="230.4" class="st0 st1 st2">		</tspan><tspan x="72" y="230.4" class="st0 st1">c-1.2,6.2-1.9,12.5-2.4,18.8c-0.2,2.6,0.2,5.4,1,7.9c1.1,3.7,4,5.3,7.4,3c3.7-2.4,7.4-5.3,10.3-8.5c16.8-18.5,29-39.6,37.2-63.2</tspan><tspan x="0" y="244.8" class="st0 st1 st2">		</tspan><tspan x="72" y="244.8" class="st0 st1">c1-3,2.8-6.5,5.2-8.1c2.4-1.6,6.6-2.1,9.1-1c2.2,1,4.5,4.9,4.4,7.4c-0.6,10.8-2.1,21.5-3.4,32.2c-0.9,7.3-2,14.6-3,22</tspan><tspan x="0" y="259.2" class="st0 st1 st2">		</tspan><tspan x="72" y="259.2" class="st0 st1">c0.4,0.2,0.8,0.3,1.2,0.5c1.3-1.6,2.7-3.1,3.9-4.8c8.6-11.6,17.2-23.3,25.9-34.9c4.5-6.1,7.8-12.6,9-20.3</tspan><tspan x="0" y="273.6" class="st0 st1 st2">		</tspan><tspan x="72" y="273.6" class="st0 st1">c1.1-7.1,5.1-10.5,10.7-10.5c4.5,0,7.2,2.3,7,6.6c-0.3,5.4-1.3,10.8-2.4,16.2c-2.3,11.4-5.1,22.7-7.1,34.1</tspan><tspan x="0" y="288" class="st0 st1 st2">		</tspan><tspan x="72" y="288" class="st0 st1">c-0.7,4.1-0.1,8.7,0.8,12.8c0.8,3.8,4,5,7.3,2.8c3.3-2.2,6.4-4.9,9-7.8c15.6-17.4,24.5-38.2,30.6-60.4c0.9-3.1,2.4-6.2,4.2-8.9</tspan><tspan x="0" y="302.4" class="st0 st1 st2">		</tspan><tspan x="72" y="302.4" class="st0 st1">c2.4-3.6,6.3-4.4,10.2-2.9c3.9,1.4,4.9,5,4.3,8.6c-1.5,8.1-3.9,16.1-5.3,24.3c-1.6,9.7-2.8,19.4-3.5,29.2c-0.2,2.5,1.5,6.7,3.4,7.4</tspan><tspan x="0" y="316.8" class="st0 st1 st2">		</tspan><tspan x="72" y="316.8" class="st0 st1">c2.3,0.9,6.1-0.5,8.3-2.1c3.3-2.4,6.2-5.6,8.5-9c8.5-12.9,17-25.9,24.9-39.1c2.2-3.7,2.6-8.5,4-12.7c1.1-3.2,2-6.7,3.9-9.5</tspan><tspan x="0" y="331.2" class="st0 st1 st2">		</tspan><tspan x="72" y="331.2" class="st0 st1">c2.1-3,6-4.6,9.3-2.4c2.2,1.5,4.4,4.9,4.4,7.4c-0.2,8.1-1.4,16.2-2.3,24.3c-0.4,3.9-1.1,7.9-0.6,12.4c1-1.3,2.1-2.6,3.1-4</tspan><tspan x="0" y="345.6" class="st0 st1 st2">		</tspan><tspan x="72" y="345.6" class="st0 st1">c8.9-12.1,17.3-24.5,26.8-36.1c4.5-5.5,10.9-9.6,16.8-13.8c2.4-1.7,5.8-2.6,8.8-3.1c8.4-1.3,13.2,1.9,13.5,10.4</tspan><tspan x="0" y="360" class="st0 st1 st2">		</tspan><tspan x="72" y="360" class="st0 st1">c0.3,10.2-0.8,20.5-1.4,30.8c-0.5,7.1-1.9,14.2-1.6,21.3c0.3,7.6,5.1,10.3,11.6,6.3c8.1-5,16.3-10.6,22.6-17.6</tspan><tspan x="0" y="374.4" class="st0 st1 st2">		</tspan><tspan x="72" y="374.4" class="st0 st1">c8.8-9.7,15.8-20.9,23.6-31.5c2.2-3.1,4.7-6.7,8.7-4.3c3.7,2.3,2.2,6.6,0.4,9.5c-12.8,20.4-26,40.4-45.6,55.1</tspan><tspan x="0" y="388.8" class="st0 st1 st2">		</tspan><tspan x="72" y="388.8" class="st0 st1">c-7.5,5.6-15.7,9.3-25.4,9c-6.8-0.2-11.9-3.2-13.3-9.8c-1.5-7.1-2.1-14.5-1.8-21.7c0.3-8.3,2.4-16.5,2.9-24.7</tspan><tspan x="0" y="403.2" class="st0 st1 st2">		</tspan><tspan x="72" y="403.2" class="st0 st1">c0.2-3.6-1.6-7.4-2.5-11.1c-3.2,1.4-7.2,1.9-9.5,4.2c-5.7,5.8-11.5,11.8-15.7,18.6c-9.1,14.5-17.3,29.5-25.8,44.3</tspan><tspan x="0" y="417.6" class="st0 st1 st2">		</tspan><tspan x="72" y="417.6" class="st0 st1">c-1.7,2.9-3.1,6-5.1,8.6c-2.4,3.2-5.9,4.3-9.8,3c-3.7-1.3-5.2-4.3-4.9-7.9c0.5-7.4,1.5-14.9,2.2-22.3c0.1-0.8,0.2-1.5-0.7-2.8</tspan><tspan x="0" y="432" class="st0 st1 st2">		</tspan><tspan x="72" y="432" class="st0 st1">c-1.3,1.9-2.7,3.9-4,5.8c-7,10.6-14.2,21.1-24.6,28.7c-3.8,2.8-8.2,5.1-12.7,6.5c-7.6,2.4-13.7-0.8-16.1-8.4</tspan><tspan x="0" y="446.4" class="st0 st1 st2">		</tspan><tspan x="72" y="446.4" class="st0 st1">c-1.6-5.2-2-10.7-3-16.4c-2.4,3.5-4.6,7.4-7.5,10.5c-6.3,6.8-12.8,13.5-19.7,19.6c-4.3,3.8-10,5-15.9,4.6</tspan><tspan x="0" y="460.8" class="st0 st1 st2">		</tspan><tspan x="72" y="460.8" class="st0 st1">c-7.3-0.6-12.3-4.1-12.9-11.4c-0.6-8.2,0.1-16.6,0.4-24.8c0.1-2.9,0.6-5.8,1-9.8c-12.2,15.6-24,29.7-34.6,44.7</tspan><tspan x="0" y="475.2" class="st0 st1 st2">		</tspan><tspan x="72" y="475.2" class="st0 st1">c-3.2,4.6-3.8,11.2-5.1,17c-7.8,35.4-16.8,70.5-31,104c-7.4,17.5-16,34.4-28.8,48.7c-6.9,7.6-14.6,14.1-24.4,17.8</tspan><tspan x="0" y="489.6" class="st0 st1 st2">		</tspan><tspan x="72" y="489.6" class="st0 st1">c-21,8-38.3-3.5-39.7-26c-0.9-14.4,3.2-27.2,9.8-39.6c13.7-25.6,31.9-47.9,51.5-69.1c12.6-13.7,25.9-26.8,39.2-40</tspan><tspan x="0" y="504" class="st0 st1 st2">		</tspan><tspan x="72" y="504" class="st0 st1">c3.9-3.9,6.4-8.1,7-13.8C949.6,491.6,951.2,482.9,952.8,473.3z M766.9,510.1c-0.5-0.3-0.9-0.5-1.4-0.8c-6.7,4.9-13.5,9.6-20.1,14.6</tspan><tspan x="0" y="518.4" class="st0 st1 st2">		</tspan><tspan x="72" y="518.4" class="st0 st1">c-39.4,29.3-76.8,60.9-107.1,99.8c-17.2,22-32.1,45.3-40.7,72.2c-3.3,10.4-5.1,21-2.7,31.9c2.8,13.2,12.5,19.4,25.1,15</tspan><tspan x="0" y="532.8" class="st0 st1 st2">		</tspan><tspan x="72" y="532.8" class="st0 st1">c7.4-2.6,14.7-6.4,21.1-11c19.4-13.8,34.5-31.8,47.7-51.3c30-44.4,52-92.6,69.3-143.2C761.2,528.3,764,519.2,766.9,510.1z</tspan><tspan x="0" y="547.2" class="st0 st1 st2">		</tspan><tspan x="72" y="547.2" class="st0 st1"> M942.5,532.7c-0.4-0.2-0.9-0.4-1.3-0.5c-0.7,0.6-1.5,1.2-2.2,1.8c-11.2,11.9-22.6,23.6-33.4,35.8c-15.7,17.7-30.3,36.3-40,58.2</tspan><tspan x="0" y="561.6" class="st0 st1 st2">		</tspan><tspan x="72" y="561.6" class="st0 st1">c-4.1,9.3-7.2,19-6.6,29.4c0.8,13,9.6,18.1,20.9,11.9c2.8-1.5,5.7-3.2,7.6-5.5c5.9-7,12.2-13.8,16.8-21.6</tspan><tspan x="0" y="576" class="st0 st1 st2">		</tspan><tspan x="72" y="576" class="st0 st1">c15.4-26.2,24.3-54.9,31.8-84.1C938.4,549.7,940.4,541.1,942.5,532.7z&quot;/&gt;</tspan><tspan x="0" y="590.4" class="st0 st1 st2">	</tspan><tspan x="36" y="590.4" class="st0 st1">&lt;path d=&quot;M851.1,417.4c-6.4,0-9.8-5.2-7.5-12c2.4-7.1,7.6-11.2,14.8-12.6c5-1,8.7,2.3,9,7.5C867.8,408.5,859.3,417.5,851.1,417.4z&quot;</tspan><tspan x="0" y="604.8" class="st0 st1 st2">		</tspan><tspan x="72" y="604.8" class="st0 st1">/&gt;</tspan><tspan x="0" y="619.2" class="st0 st1">&lt;/g&gt;</tspan><tspan x="0" y="633.6" class="st0 st1">&lt;/svg&gt;</tspan></text>
</svg>
